<?xml version="1.0" encoding="UTF-8" standalone="no"?>
<!-- Created with Inkscape (http://www.inkscape.org/) -->

<svg
				xmlns:dc="http://purl.org/dc/elements/1.1/"
				xmlns:cc="http://creativecommons.org/ns#"
				xmlns:rdf="http://www.w3.org/1999/02/22-rdf-syntax-ns#"
				xmlns="http://www.w3.org/2000/svg"
				xmlns:sodipodi="http://sodipodi.sourceforge.net/DTD/sodipodi-0.dtd"
				xmlns:inkscape="http://www.inkscape.org/namespaces/inkscape"
				version="1.1"
				id="svg8417"
				width="225"
				height="225"
				viewBox="0 0 225 225"
				sodipodi:docname="save.svg"
				inkscape:version="0.92.1 r15371">
  <metadata
     id="metadata8423">
    <rdf:RDF>
      <cc:Work
         rdf:about="">
        <dc:format>image/svg+xml</dc:format>
        <dc:type
           rdf:resource="http://purl.org/dc/dcmitype/StillImage" />
        <dc:title></dc:title>
      </cc:Work>
    </rdf:RDF>
  </metadata>
  <defs
     id="defs8421" />
  <sodipodi:namedview
     pagecolor="#ffffff"
     bordercolor="#666666"
     borderopacity="1"
     objecttolerance="10"
     gridtolerance="10"
     guidetolerance="10"
     inkscape:pageopacity="0"
     inkscape:pageshadow="2"
     inkscape:window-width="1920"
     inkscape:window-height="1018"
     id="namedview8419"
     showgrid="false"
     inkscape:zoom="1.8866667"
     inkscape:cx="116.32937"
     inkscape:cy="133.35705"
     inkscape:window-x="-8"
     inkscape:window-y="-8"
     inkscape:window-maximized="1"
     inkscape:current-layer="svg8417" />
  <path
     style="fill:#5C6D6E"
     d="m 15.69952,208.83213 -16.2704499,-16.13402 0.27045,-90.59905 c 0.26014,-87.146299 0.34323,-90.719327 2.18037,-93.754804 1.05046,-1.7356601 3.75046,-4.2106601 6,-5.5000001 l 4.0900699,-2.344256 99.50023,-0.268668 99.50023,-0.268668 4.47689,2.268668 c 2.66444,1.350203 5.29585,3.685634 6.49977,5.768668 1.99405,3.4501201 2.02288,4.9393821 2.02288,104.5000001 0,99.56062 -0.0288,101.04988 -2.02288,104.5 -1.19797,2.07274 -3.83305,4.41752 -6.46189,5.75 l -4.43901,2.25 -89.53811,-0.0169 -89.53811,-0.0169 z m 44.77044,-43.30908 v -42.47694 l 2.35991,-1.54627 c 2.07466,-1.35938 9.57829,-1.51325 62.08097,-1.27306 57.79647,0.26442 59.76681,0.33578 61.1401,2.21435 1.17178,1.60292 1.41902,9.22558 1.41902,43.75 V 208 l 7.75,-0.0153 c 4.2625,-0.008 8.425,-0.44196 9.25,-0.96342 1.31269,-0.82972 1.53249,-12.55549 1.7602,-93.90306 C 206.46431,29.470281 206.332,20.004907 204.90873,18.581638 203.73254,17.405437 201.29468,17 195.39853,17 h -7.92857 l -0.004,28.75 c -0.003,26.750759 -0.13948,28.972624 -1.95578,31.951454 -3.9051,6.40501 -2.95841,6.29855 -56.00525,6.29855 H 81.44059 L 77.70528,80.578134 73.96996,77.156264 73.67789,47.07813 73.38582,17 h -26.2668 c -19.44231,0 -26.70741,0.324768 -27.96267,1.25 -1.57089,1.157882 -1.69552,7.365452 -1.69113,84.23435 l 0.005,82.98436 11.23369,11.26564 L 39.9376,208 h 10.26631 10.26631 z m 114,5.47695 v -37 h -49.47581 -49.4758 l -0.27419,36.58414 c -0.15081,20.12128 -0.0867,36.77128 0.14247,37 C 75.6158,207.81287 98.0033,208 125.13663,208 h 49.33333 z m -79.8,18.8 c -1.98904,-1.98905 -1.42599,-6.5283 1.02251,-8.2433 1.88774,-1.32222 6.59892,-1.5567 31.27749,-1.5567 31.54332,0 33.5,0.32039 33.5,5.48528 0,5.42758 -0.53523,5.51472 -33.87143,5.51472 -22.56667,0 -31.0473,-0.31874 -31.92857,-1.2 z m 0.55,-27.8801 c -2.49197,-1.45144 -2.36612,-7.51979 0.18426,-8.88472 C 96.61389,152.38779 108.54334,152 127.24923,152 c 27.70706,0 30.03269,0.13473 31.56574,1.82874 2.1712,2.39914 2.10048,5.45812 -0.17375,7.51627 -1.61756,1.46388 -5.28395,1.65148 -31.75,1.62458 -18.45629,-0.0188 -30.59181,-0.42097 -31.67126,-1.04969 z m 73.6849,-92.895149 2.5651,-0.975249 V 42.524751 17 h -41.5 -41.5 v 24.30887 c 0,17.881739 0.3305,24.754387 1.25,25.993916 1.11829,1.507494 4.5691,1.713584 32.75,1.955901 17.325,0.148971 34.28321,0.376709 37.6849,0.506085 3.4017,0.129375 7.3392,-0.203634 8.75,-0.740021 z"
     id="path8429"
     inkscape:connector-curvature="0" />
</svg>
